<svg width="16" height="16" viewBox="0 0 16 16" fill="none" xmlns="http://www.w3.org/2000/svg">
<path fill-rule="evenodd" clip-rule="evenodd" d="M12.4195 13.9848C13.3928 13.3635 14.21 12.5264 14.7996 11.5417C14.7441 11.5495 14.6878 11.5572 14.6323 11.5642C14.282 11.6077 13.9245 11.6295 13.5631 11.6295C11.2122 11.6295 9.08335 10.696 7.54248 9.18638C6.00161 7.67673 5.04897 5.59084 5.04897 3.28751C5.04897 2.76488 5.0989 2.25 5.19481 1.74757C5.23602 1.52934 5.28675 1.31424 5.3454 1.10223C4.13351 1.62021 3.08888 2.44337 2.31135 3.47395C1.39273 4.69084 0.849795 6.19814 0.849795 7.8321C0.849795 9.8581 1.68837 11.6924 3.04301 13.0204C4.39836 14.3484 6.27043 15.1693 8.33845 15.1693C9.84519 15.1693 11.2473 14.7344 12.4195 13.9866L12.4195 13.9848ZM15.9663 11.1324C15.3092 12.5877 14.2297 13.8202 12.8807 14.6806C11.5729 15.5154 10.0122 16 8.33822 16C6.03565 16 3.95119 15.0852 2.44198 13.6074C0.932861 12.1288 0 10.0864 0 7.83041C0 6.01478 0.606345 4.33586 1.63118 2.97843C2.68059 1.58836 4.17076 0.536142 5.89931 0.0180626C6.12283 -0.0487231 6.35981 0.0755286 6.42719 0.294518C6.45573 0.386929 6.45018 0.480895 6.41689 0.56477C6.24727 0.991877 6.11649 1.43763 6.02851 1.90048C5.9437 2.34624 5.89852 2.80985 5.89852 3.28823C5.89852 5.36174 6.75612 7.23863 8.14307 8.59765C9.53012 9.95664 11.4458 10.7968 13.5621 10.7968C13.8894 10.7968 14.212 10.7766 14.5283 10.7378C14.8572 10.6974 15.1727 10.6392 15.4722 10.5631C15.6989 10.5064 15.9296 10.6407 15.9866 10.8628C16.0112 10.956 16.0009 11.0507 15.9637 11.1323L15.9652 11.1331L15.9663 11.1324Z" fill="#CFD4D9"/>
</svg>
