<svg width="20" height="20" viewBox="0 0 20 20" fill="none" xmlns="http://www.w3.org/2000/svg">
<path d="M10 15.3502C8.58066 15.3502 7.22041 14.7858 6.21724 13.7827C5.21414 12.7796 4.6498 11.4194 4.6498 9.99996C4.6498 8.58058 5.21417 7.22037 6.21724 6.2172C7.22033 5.2141 8.58061 4.64976 10 4.64976C11.4194 4.64976 12.7796 5.21413 13.7828 6.2172C14.7858 7.2203 15.3502 8.58058 15.3502 9.99996C15.3474 11.4184 14.783 12.7776 13.7799 13.7798C12.7778 14.7829 11.4184 15.3473 10 15.3502ZM10 5.99982C8.95848 6.01294 7.96381 6.43761 7.23361 7.1801C6.50331 7.92352 6.09645 8.92473 6.10019 9.96617C6.10488 11.0077 6.52112 12.0061 7.25703 12.7429C7.99388 13.4788 8.99229 13.895 10.0337 13.8997C11.0753 13.9035 12.0765 13.4966 12.8198 12.7663C13.5623 12.036 13.987 11.0414 14.0001 9.99992C14.0001 8.93869 13.5782 7.92153 12.8283 7.1716C12.0783 6.42167 11.0612 5.99982 10 5.99982ZM10.7003 2.71024V0.700298C10.7003 0.314054 10.3862 0 10 0C9.61375 0 9.2997 0.314054 9.2997 0.700298V2.75992C9.2997 3.14709 9.61375 3.46021 10 3.46021C10.3862 3.46021 10.7003 3.14709 10.7003 2.75992V2.71024ZM5.38015 5.38015C5.65482 5.10361 5.65482 4.65737 5.38015 4.37987L3.92051 2.93053C3.78833 2.79553 3.60833 2.72053 3.41991 2.72053C3.23523 2.72053 3.05805 2.79647 2.93055 2.93053C2.79367 3.06083 2.71586 3.24084 2.71586 3.43019C2.71586 3.61954 2.79367 3.79956 2.93055 3.92986L4.39018 5.39981C4.67142 5.66231 5.11015 5.6539 5.38015 5.38015ZM2.75991 9.29971H0.700297C0.314054 9.29971 0 9.61377 0 10C0 10.3863 0.314054 10.7003 0.700297 10.7003H2.75991C3.14709 10.7003 3.46021 10.3863 3.46021 10C3.46021 9.61377 3.14709 9.29971 2.75991 9.29971ZM2.92959 16.0795H2.93053C2.65399 16.356 2.65399 16.8032 2.93053 17.0798C3.20614 17.3563 3.65425 17.3563 3.92988 17.0798L5.38015 15.6098C5.65483 15.3333 5.65483 14.8871 5.38015 14.6096C5.24422 14.483 5.0661 14.4117 4.88049 14.4099C4.69675 14.4108 4.52144 14.483 4.39019 14.6096L2.92959 16.0795ZM9.29971 17.2401V19.2997C9.29971 19.6859 9.61376 20 10 20C10.3862 20 10.7003 19.6859 10.7003 19.2997V17.2401C10.7003 16.8529 10.3862 16.5398 10 16.5398C9.61376 16.5398 9.29971 16.8529 9.29971 17.2401ZM14.6199 14.6198C14.3452 14.8964 14.3452 15.3426 14.6199 15.6201L16.0795 17.0798C16.356 17.3563 16.8032 17.3563 17.0798 17.0798C17.3563 16.8032 17.3563 16.356 17.0798 16.0795L15.6098 14.6198C15.4786 14.4924 15.3033 14.4211 15.1195 14.4202C14.9339 14.4211 14.7558 14.4924 14.6199 14.6198ZM20 9.99999C20 9.61374 19.6859 9.29969 19.2997 9.29969H17.2401C16.8529 9.29969 16.5398 9.61374 16.5398 9.99999C16.5398 10.3862 16.8529 10.7003 17.2401 10.7003H19.2997C19.4853 10.7003 19.6634 10.6262 19.7947 10.495C19.9259 10.3637 20 10.1856 20 9.99999ZM17.0704 3.9205H17.0695C17.3441 3.64302 17.3441 3.19677 17.0695 2.92021C16.9429 2.78521 16.7648 2.70927 16.5801 2.71021C16.3917 2.71021 16.2117 2.78615 16.0795 2.92021L14.6199 4.37984C14.3433 4.65639 14.3433 5.10356 14.6199 5.38013C14.8964 5.6567 15.3436 5.65667 15.6202 5.38013L17.0704 3.9205Z" fill="#CFD4D9"/>
</svg>
