<svg width="46" height="41" viewBox="0 0 46 41" fill="none" xmlns="http://www.w3.org/2000/svg">
<path d="M29.4163 25.4286C29.3881 25.4059 29.3633 25.3821 29.3313 25.3652C29.1976 25.2943 29.0404 25.2527 28.892 25.2233L21.7604 23.8092L21.3798 23.7458C21.0089 23.6531 20.6041 23.6959 20.3635 23.7504C20.2361 23.7793 20.1086 23.8125 19.9839 23.8513C19.9039 23.8763 19.8165 23.8849 19.7367 23.9107C18.9352 24.1688 17.9807 24.5828 17.2561 24.8243C16.1141 25.2684 14.9087 25.7759 13.7668 25.9663C13.3861 26.0297 13.0055 26.0931 12.6883 26.0931C11.2926 26.0931 10.6582 25.4587 10.2141 25.0146C8.9469 23.7475 9.7192 21.8004 9.8722 21.4526C9.88332 21.4273 9.86471 21.3985 9.83708 21.3985C9.83465 21.3985 9.83222 21.3982 9.82984 21.3978L1.26643 19.7101C1.18364 19.6938 1.09945 19.6855 1.01506 19.6855C0.951621 19.6855 0.951622 19.6855 0.88818 19.6855C0.380649 19.6855 0 20.0662 0 20.5737C0 20.8275 0.0634414 21.0178 0.253766 21.2081L0.317207 21.2716L20.4301 39.6768C20.4613 39.7054 20.5124 39.7539 20.5423 39.7838C20.5454 39.7868 20.5568 39.7977 20.5604 39.8001C20.7489 39.9257 20.9375 40.0503 21.126 40.0503C21.4432 40.0503 21.697 39.9234 21.8239 39.6696L22.4583 38.6545L29.6272 26.791C29.754 26.6007 29.8175 26.4738 29.8175 26.2835C29.8175 25.8648 29.6483 25.6152 29.4163 25.4286Z" fill="white"/>
<path d="M44.5194 0.0288613C44.4887 0.0197892 44.4567 0.0172905 44.4247 0.0172905C44.3725 0.0172905 44.3208 0.00629325 44.2689 0.00163802C44.0917 -0.0142239 43.8853 0.0889819 43.7749 0.144173L14.1478 20.1282L11.981 21.5727C11.9046 21.6237 11.8253 21.6555 11.7742 21.7318C11.7572 21.7572 11.724 21.786 11.6992 21.804C11.3437 22.0615 11.166 22.4927 11.166 22.9831C11.166 23.8078 11.8639 24.5057 12.6886 24.5057C14.0843 24.5057 17.7639 22.9831 18.0177 22.8562C19.6037 22.2218 21.1898 21.7143 22.4586 21.968C22.7758 22.0315 27.407 22.9197 29.1834 23.3003L30.6439 23.6046C30.6852 23.6132 30.7272 23.6175 30.7694 23.6175C30.8329 23.6175 30.8329 23.6175 30.8963 23.6175C31.1941 23.6175 31.436 23.5057 31.5695 23.282C31.5869 23.2527 31.6065 23.2246 31.6306 23.2005C31.6485 23.1825 31.6548 23.178 31.668 23.1563C32.0557 22.5175 43.1591 4.22248 44.7829 1.49723C44.9192 1.26847 45.1072 1.04488 45.1072 0.778588C45.1072 0.476929 44.8203 0.117896 44.5194 0.0288613Z" fill="white"/>
</svg>
